<svg id="Capa_1" enable-background="new 0 0 512 512" height="512" viewBox="0 0 512 512" width="512" xmlns="http://www.w3.org/2000/svg"><g><path d="m32.782 106.35 27.19 114.25c-29.983 6.935-27.986 6.402-29.19 6.93l-27.19-114.23c-9.74-41.01 20.53-80.17 61.99-81.78-3.29 9.11-3.29 20.24 1 29.98-22.71 1-39.12 22.5-33.8 44.85z" fill="#e4edef"/><path d="m322.892 113.3-27.19 114.23c-1.205-.529.763-.002-29.19-6.93l27.19-114.25c5.33-22.38-11.12-43.85-33.8-44.85 4.23-9.6 4.3-20.98 1.19-29.98 41.43 1.73 71.51 40.89 61.8 81.78z" fill="#bfdfe7"/><path d="m457.242 248.3v198.7c0 35.84-29.16 65-65 65h-179c-35.84 0-65-29.16-65-65v-61h30v61c0 19.3 15.7 35 35 35h179c19.3 0 35-15.7 35-35v-198.95c9.81 2.51 20.13 2.6 30 .25z" fill="#027893"/><path d="m457.242 248.3v198.7c0 35.84-29.16 65-65 65h-179c-20.08 0-38.07-9.16-50-23.52v-102.48h15v61c0 19.3 15.7 35 35 35h179c19.3 0 35-15.7 35-35v-198.95c9.81 2.51 20.13 2.6 30 .25z" fill="#00607f"/><circle cx="442.742" cy="187.5" fill="#23a5f6" r="67.5"/><circle cx="442.742" cy="187.5" fill="#bfdfe7" r="37.5"/><path d="m223.866 0c-24.486 0-44.945 19.624-45.606 43.746-.667 24.267 18.256 46.254 45.606 46.254 24.469 0 44.376-19.907 44.376-44.376v-1.248c0-24.469-19.907-44.376-44.376-44.376z" fill="#23a5f6"/><path d="m103.242 0c-24.813 0-45 20.187-45 45 0 26.232 20.81 45 44.376 45 24.486 0 44.945-19.624 45.606-43.746.699-25.407-19.649-46.254-44.982-46.254z" fill="#63c6f8"/><path d="m134.242 375v-20.943c0-6.742-4.494-12.664-10.994-14.455-50.058-13.795-90.139-53.147-104.4-103.876-1.544-5.491 1.823-11.161 7.38-12.447l39.021-9.033c5.1-1.181 10.303 1.755 11.802 6.771 11.233 37.574 46.116 63.983 86.191 63.983s74.958-26.409 86.191-63.984c1.499-5.016 6.702-7.952 11.802-6.771l39.021 9.033c5.557 1.286 8.923 6.956 7.38 12.447-14.254 50.7-54.317 90.075-104.4 103.876-6.5 1.791-10.994 7.713-10.994 14.455v20.944c0 8.284-6.716 15-15 15h-28c-8.284 0-15-6.716-15-15z" fill="#63c6f8"/><path d="m307.632 235.73c-14.222 50.571-54.186 90.029-104.4 103.87-6.5 1.79-10.99 7.71-10.99 14.46v20.94c0 8.313-6.758 15-15 15h-14v-105c40.07 0 74.96-26.41 86.19-63.98 1.5-5.02 6.7-7.96 11.8-6.77l39.02 9.03c5.56 1.28 8.93 6.95 7.38 12.45z" fill="#23a5f6"/></g></svg>