<?xml version="1.0" encoding="iso-8859-1"?>
<!-- Generator: Adobe Illustrator 19.0.0, SVG Export Plug-In . SVG Version: 6.00 Build 0)  -->
<svg version="1.1" id="Layer_1" xmlns="http://www.w3.org/2000/svg" xmlns:xlink="http://www.w3.org/1999/xlink" x="0px" y="0px"
	 viewBox="0 0 491.52 491.52" style="enable-background:new 0 0 491.52 491.52;" xml:space="preserve">
<path style="fill:#DC8744;" d="M407.526,61.336H83.994c-8.533,0-15.451,6.918-15.451,15.452v399.28
	c0,8.535,6.918,15.453,15.451,15.453h323.533c8.533,0,15.451-6.918,15.451-15.453V76.788
	C422.977,68.254,416.059,61.336,407.526,61.336z"/>
<path style="fill:#F6C358;" d="M407.526,52.262H83.994c-8.533,0-15.451,6.919-15.451,15.452v399.28
	c0,8.535,6.918,15.452,15.451,15.452h323.533c8.533,0,15.451-6.918,15.451-15.452V67.714
	C422.977,59.181,416.059,52.262,407.526,52.262z"/>
<rect x="97.331" y="79.718" style="fill:#EBF0F3;" width="296.868" height="376.986"/>
<rect x="97.331" y="70.779" style="fill:#FFFFFF;" width="296.868" height="376.986"/>
<path style="fill:#DC8744;" d="M343.354,41.363c-1.696-7.333-8.228-12.526-15.754-12.526h-53.004
	C274.597,12.911,261.686,0,245.759,0c-15.925,0-28.836,12.911-28.836,28.837h-53.005c-7.525,0-14.057,5.193-15.753,12.526
	l-10.87,47.009h216.928L343.354,41.363z M245.759,42.697c-7.654,0-13.859-6.205-13.859-13.86s6.205-13.86,13.859-13.86
	c7.656,0,13.861,6.205,13.861,13.86S253.415,42.697,245.759,42.697z"/>
<path style="fill:#64798A;" d="M193.134,189.028h-73.309v-73.313h73.309V189.028z M133.231,175.623h46.499V129.12h-46.499V175.623z"
	/>
<g>
	<rect x="210.586" y="123.494" style="fill:#E1E6E9;" width="81.572" height="12.769"/>
	<rect x="210.586" y="168.489" style="fill:#E1E6E9;" width="163.144" height="12.769"/>
</g>
<path style="fill:#64798A;" d="M193.134,295.924h-73.309V222.61h73.309V295.924z M133.231,282.519h46.499v-46.503h-46.499V282.519z"
	/>
<g>
	<rect x="210.586" y="230.385" style="fill:#E1E6E9;" width="81.572" height="12.769"/>
	<rect x="210.586" y="275.384" style="fill:#E1E6E9;" width="163.144" height="12.769"/>
</g>
<path style="fill:#64798A;" d="M193.134,402.819h-73.309v-73.313h73.309V402.819z M133.231,389.414h46.499v-46.503h-46.499V389.414z
	"/>
<g>
	<rect x="210.586" y="337.28" style="fill:#E1E6E9;" width="81.572" height="12.769"/>
	<rect x="210.586" y="382.259" style="fill:#E1E6E9;" width="163.144" height="12.769"/>
</g>
<g>
	<polygon style="fill:#E56353;" points="152.125,171.626 133.894,150.166 140.701,144.379 153.47,159.408 197.297,126.31 
		202.691,133.44 	"/>
	<polygon style="fill:#E56353;" points="152.125,274.311 133.894,252.855 140.701,247.069 153.47,262.093 197.297,228.999 
		202.691,236.129 	"/>
</g>
<g>
</g>
<g>
</g>
<g>
</g>
<g>
</g>
<g>
</g>
<g>
</g>
<g>
</g>
<g>
</g>
<g>
</g>
<g>
</g>
<g>
</g>
<g>
</g>
<g>
</g>
<g>
</g>
<g>
</g>
</svg>
