<?xml version="1.0" encoding="iso-8859-1"?>
<!-- Generator: Adobe Illustrator 19.0.0, SVG Export Plug-In . SVG Version: 6.00 Build 0)  -->
<svg version="1.1" id="Capa_1" xmlns="http://www.w3.org/2000/svg" xmlns:xlink="http://www.w3.org/1999/xlink" x="0px" y="0px"
	 viewBox="0 0 512.001 512.001" style="enable-background:new 0 0 512.001 512.001;" xml:space="preserve">
<polygon style="fill:#F9F5F2;" points="329.144,370.286 329.144,342.858 182.859,342.858 182.859,370.286 256.001,443.429 "/>
<path style="fill:#24537E;" d="M487.864,428.069c-7.323-33.691-37.111-57.737-71.589-57.783h-87.131l-73.143,73.143l-73.143-73.143
	H95.727c-34.478,0.046-64.265,24.091-71.589,57.783L9.144,498.286h493.714L487.864,428.069z"/>
<g>
	<path style="fill:#F9F5F2;" d="M109.716,224.001c0,20.197,16.375,36.571,36.571,36.571v-73.143
		C126.091,187.429,109.716,203.804,109.716,224.001z"/>
	<path style="fill:#F9F5F2;" d="M402.287,224.001c0-20.197-16.375-36.571-36.571-36.571v73.143
		C385.912,260.572,402.287,244.197,402.287,224.001z"/>
</g>
<g>
	<path style="fill:#FDCA6E;" d="M365.716,86.858V68.572c0-30.299-24.558-54.857-54.857-54.857H91.43v54.857
		c0,30.299,24.558,54.857,54.857,54.857h219.429V86.858z"/>
	<path style="fill:#FDCA6E;" d="M365.716,178.286c20.197,0,36.571-16.375,36.571-36.571v-36.571
		c0-10.103-8.183-18.286-18.286-18.286h-18.286V178.286z"/>
	<path style="fill:#FDCA6E;" d="M118.859,123.429v36.571c0,10.103,8.183,18.286,18.286,18.286h9.143v-54.857H118.859z"/>
</g>
<path style="fill:#F9F5F2;" d="M146.287,123.429v182.857c0,20.197,16.375,36.571,36.571,36.571h146.286
	c20.197,0,36.571-16.375,36.571-36.571V123.429H146.287z"/>
<g>
	<path style="fill:#231F20;" d="M496.806,426.122c-8.384-37.797-41.81-64.768-80.53-64.978h-77.989v-10.057
		c21.266-4.37,36.544-23.086,36.571-44.8v-37.486c24.686-4.974,40.658-29.019,35.685-53.705
		c-2.843-14.135-12.215-26.094-25.262-32.238c15.918-7.525,26.094-23.534,26.149-41.143v-36.571
		c0-15.15-12.279-27.429-27.429-27.429h-9.143v-9.143c-0.037-35.328-28.672-63.963-64-64H91.43c-5.047,0-9.143,4.096-9.143,9.143
		v54.857c0.018,21.102,10.432,40.841,27.849,52.763c-0.229,0.677-0.366,1.381-0.421,2.094v36.571
		c0.027,10.13,5.659,19.419,14.629,24.128c-22.098,12.005-30.281,39.653-18.277,61.76c6.446,11.867,17.829,20.261,31.077,22.912
		v37.486c0.027,21.714,15.305,40.43,36.571,44.8v10.057H95.727c-38.729,0.21-72.165,27.2-80.53,65.015L0.203,496.376
		c-1.051,4.937,2.094,9.792,7.031,10.853c0.631,0.137,1.271,0.201,1.911,0.201h493.714c5.047,0,9.143-4.096,9.143-9.143
		c0-0.64-0.064-1.28-0.201-1.911L496.806,426.122z M192.001,352.001h128v14.501l-64,64l-64-64V352.001z M393.144,224.001
		c-0.018,11.621-7.333,21.979-18.286,25.865v-51.73C385.812,202.03,393.135,212.38,393.144,224.001z M384.001,96.001
		c5.047,0,9.143,4.096,9.143,9.143v36.571c-0.018,11.621-7.333,21.979-18.286,25.865V96.001H384.001z M100.573,68.572V22.858
		h210.286c25.234,0.027,45.687,20.48,45.714,45.714v45.714H146.287C121.053,114.259,100.609,93.806,100.573,68.572z
		 M137.144,169.144c-5.047,0-9.143-4.096-9.143-9.143v-27.429h9.143V169.144z M118.859,224.001
		c0.018-11.621,7.333-21.979,18.286-25.865v51.73C126.2,245.98,118.877,235.621,118.859,224.001z M155.43,306.286V132.572h201.143
		v173.714c0,15.15-12.279,27.429-27.429,27.429H182.859C167.709,333.715,155.43,321.436,155.43,306.286z M419.174,489.144
		l-7.872-47.223l-18.03,3.017l7.369,44.206h-289.28l7.369-44.206l-18.03-3.017l-7.872,47.223H20.445l12.626-59.136
		c6.519-29.422,32.521-50.414,62.656-50.578h83.346l70.464,70.464c3.566,3.566,9.362,3.566,12.928,0l70.464-70.464h83.346
		c30.126,0.165,56.128,21.147,62.656,50.551l12.626,59.163H419.174z"/>
	<circle style="fill:#231F20;" cx="310.859" cy="196.572" r="18.286"/>
	<circle style="fill:#231F20;" cx="201.144" cy="196.572" r="18.286"/>
	<rect x="301.716" y="452.572" style="fill:#231F20;" width="54.857" height="18.286"/>
	<rect x="365.716" y="452.572" style="fill:#231F20;" width="18.286" height="18.286"/>
</g>
<g>
</g>
<g>
</g>
<g>
</g>
<g>
</g>
<g>
</g>
<g>
</g>
<g>
</g>
<g>
</g>
<g>
</g>
<g>
</g>
<g>
</g>
<g>
</g>
<g>
</g>
<g>
</g>
<g>
</g>
</svg>
